<!--
  ~ Copyright 2016 Virtual Rainbow, LLC
  ~
  ~ Licensed under the Apache License, Version 2.0 (the "License");
  ~ you may not use this file except in compliance with the License.
  ~ You may obtain a copy of the License at
  ~
  ~     http://www.apache.org/licenses/LICENSE-2.0
  ~
  ~ Unless required by applicable law or agreed to in writing, software
  ~ distributed under the License is distributed on an "AS IS" BASIS,
  ~ WITHOUT WARRANTIES OR CONDITIONS OF ANY KIND, either express or implied.
  ~ See the License for the specific language governing permissions and
  ~ limitations under the License.
  -->

<svg version="1.1" xmlns="http://www.w3.org/2000/svg" xmlns:xlink="http://www.w3.org/1999/xlink" width="48" height="48"><defs><linearGradient x1="10.48941" y1="11.99059" x2="58.72379" y2="57.22261" gradientUnits="userSpaceOnUse" id="color-1"><stop offset="0.1" stop-color="#000000" stop-opacity="0.5"></stop><stop offset="1" stop-color="#000000" stop-opacity="0"></stop></linearGradient><filter id="dropshadow-base"><feColorMatrix type="matrix" values="0 0 0 0 0  0 0 0 0 0  0 0 0 0 0  0 0 0 .8 0"></feColorMatrix> <feOffset dx="0" dy="1"></feOffset> <feGaussianBlur stdDeviation="1"></feGaussianBlur> <feComposite in="SourceGraphic"></feComposite></filter><filter id="dropshadow-banner" x="-10%" y="-10%" width="120%" height="130%"><feColorMatrix type="matrix" values="0 0 0 0 0  0 0 0 0 0  0 0 0 0 0  0 0 0 .4 0"></feColorMatrix> <feOffset dx="0" dy="1"></feOffset> <feGaussianBlur stdDeviation="0.5"></feGaussianBlur> <feComposite in="SourceGraphic"></feComposite></filter></defs><g fill="none" fill-rule="nonzero" stroke="none" stroke-width="none" stroke-linecap="butt" stroke-linejoin="miter" stroke-miterlimit="10" stroke-dasharray="" stroke-dashoffset="0" font-family="none" font-weight="none" font-size="none" text-anchor="none" style="mix-blend-mode: normal"><path d="M3,24c0,-11.59798 9.40202,-21 21,-21c11.59798,0 21,9.40202 21,21c0,11.59798 -9.40202,21 -21,21c-11.59798,0 -21,-9.40202 -21,-21z" id="base 1 1" fill="#3f51b5" stroke-width="1" filter="url(#dropshadow-base)"></path><path d="M15.74353,11.99059c-0.98327,0 -1.82393,0.63049 -2.13167,1.51619l-3.12245,8.99204l0.00001,0.00001l0,12.0094c0,0.41282 0.16888,0.78812 0.44097,1.06021l9.04662,9.04662c1.30207,0.25262 2.64708,0.38494 4.02299,0.38494c11.59798,0 21,-9.40202 21,-21c0,-0.06705 -0.00031,-0.13402 -0.00094,-0.20092l-11.14764,-11.14764c-0.40898,-0.40898 -0.97348,-0.66085 -1.59495,-0.66085l-16.51293,0l2.25177,2.25177l-0.00001,0z" fill="url(#color-1)" stroke-width="1"></path><path d="M34.38814,13.50678c-0.30774,-0.88569 -1.1484,-1.51619 -2.13167,-1.51619l-16.51293,0c-0.98327,0 -1.82393,0.63049 -2.13167,1.51619l-3.12245,8.99204l0,12.00941c0,0.82565 0.67553,1.50118 1.50118,1.50118l1.50118,0c0.83315,0 1.50118,-0.67553 1.50118,-1.50118l0,-1.50118l18.01411,0l0,1.50118c0,0.82565 0.67553,1.50118 1.50118,1.50118l1.50118,0c0.83315,0 1.50118,-0.67553 1.50118,-1.50118l0,-12.00941z M13.49177,20.99765l2.25176,-6.75529l16.51293,0l2.25176,6.75529z M15.74353,28.50353c-1.24598,0 -2.25176,-1.00579 -2.25176,-2.25176c0,-1.24598 1.00579,-2.25176 2.25176,-2.25176c1.24598,0 2.25176,1.00579 2.25176,2.25176c0,1.24598 -1.00579,2.25176 -2.25176,2.25176z M32.25647,28.50353c-1.24598,0 -2.25176,-1.00579 -2.25176,-2.25176c0,-1.24598 1.00579,-2.25176 2.25176,-2.25176c1.24598,0 2.25176,1.00579 2.25176,2.25176c0,1.24598 -1.00579,2.25176 -2.25176,2.25176z" fill="#ffc107" stroke-width="0"></path></g></svg>